<mxfile host="app.diagrams.net" modified="2024-01-06T08:38:20.859Z" agent="Mozilla/5.0 (Windows NT 10.0; Win64; x64) AppleWebKit/537.36 (KHTML, like Gecko) Chrome/120.0.0.0 Safari/537.36 Edg/120.0.0.0" etag="0sABIYLnQS-vwrTPexdw" version="22.1.17" type="github">
  <diagram id="prtHgNgQTEPvFCAcTncT" name="Page-1">
    <mxGraphModel dx="1002" dy="577" grid="1" gridSize="10" guides="1" tooltips="1" connect="1" arrows="1" fold="1" page="1" pageScale="1" pageWidth="827" pageHeight="1169" math="0" shadow="0">
      <root>
        <mxCell id="0" />
        <mxCell id="1" parent="0" />
        <mxCell id="dNxyNK7c78bLwvsdeMH5-19" value="Pool" style="swimlane;html=1;childLayout=stackLayout;resizeParent=1;resizeParentMax=0;horizontal=0;startSize=20;horizontalStack=0;direction=east;flipH=0;flipV=1;" parent="1" vertex="1">
          <mxGeometry x="120" y="180" width="880" height="330" as="geometry" />
        </mxCell>
        <mxCell id="dNxyNK7c78bLwvsdeMH5-20" value="user" style="swimlane;html=1;startSize=20;horizontal=0;direction=east;" parent="dNxyNK7c78bLwvsdeMH5-19" vertex="1">
          <mxGeometry x="20" width="860" height="190" as="geometry" />
        </mxCell>
        <mxCell id="_Y3a0ysCMhxK1ZZNrRvd-23" value="" style="edgeStyle=orthogonalEdgeStyle;rounded=0;orthogonalLoop=1;jettySize=auto;html=1;" edge="1" parent="dNxyNK7c78bLwvsdeMH5-20" target="_Y3a0ysCMhxK1ZZNrRvd-22">
          <mxGeometry relative="1" as="geometry">
            <mxPoint x="60" y="78" as="sourcePoint" />
          </mxGeometry>
        </mxCell>
        <mxCell id="_Y3a0ysCMhxK1ZZNrRvd-21" value="" style="ellipse;html=1;shape=startState;fillColor=#000000;strokeColor=#ff0000;" vertex="1" parent="dNxyNK7c78bLwvsdeMH5-20">
          <mxGeometry x="40" y="63" width="30" height="30" as="geometry" />
        </mxCell>
        <mxCell id="_Y3a0ysCMhxK1ZZNrRvd-25" value="" style="edgeStyle=orthogonalEdgeStyle;rounded=0;orthogonalLoop=1;jettySize=auto;html=1;" edge="1" parent="dNxyNK7c78bLwvsdeMH5-20" source="_Y3a0ysCMhxK1ZZNrRvd-22" target="_Y3a0ysCMhxK1ZZNrRvd-24">
          <mxGeometry relative="1" as="geometry" />
        </mxCell>
        <mxCell id="_Y3a0ysCMhxK1ZZNrRvd-22" value="提问问题" style="rounded=1;whiteSpace=wrap;html=1;" vertex="1" parent="dNxyNK7c78bLwvsdeMH5-20">
          <mxGeometry x="90" y="63" width="80" height="30" as="geometry" />
        </mxCell>
        <mxCell id="_Y3a0ysCMhxK1ZZNrRvd-28" style="edgeStyle=orthogonalEdgeStyle;rounded=0;orthogonalLoop=1;jettySize=auto;html=1;exitX=0.5;exitY=0;exitDx=0;exitDy=0;entryX=0;entryY=0.5;entryDx=0;entryDy=0;" edge="1" parent="dNxyNK7c78bLwvsdeMH5-20" source="_Y3a0ysCMhxK1ZZNrRvd-24" target="_Y3a0ysCMhxK1ZZNrRvd-26">
          <mxGeometry relative="1" as="geometry" />
        </mxCell>
        <mxCell id="_Y3a0ysCMhxK1ZZNrRvd-38" value="" style="edgeStyle=orthogonalEdgeStyle;rounded=0;orthogonalLoop=1;jettySize=auto;html=1;" edge="1" parent="dNxyNK7c78bLwvsdeMH5-20" source="_Y3a0ysCMhxK1ZZNrRvd-24" target="_Y3a0ysCMhxK1ZZNrRvd-37">
          <mxGeometry relative="1" as="geometry" />
        </mxCell>
        <mxCell id="_Y3a0ysCMhxK1ZZNrRvd-24" value="" style="rhombus;whiteSpace=wrap;html=1;" vertex="1" parent="dNxyNK7c78bLwvsdeMH5-20">
          <mxGeometry x="200" y="53" width="50" height="50" as="geometry" />
        </mxCell>
        <mxCell id="_Y3a0ysCMhxK1ZZNrRvd-40" style="edgeStyle=orthogonalEdgeStyle;rounded=0;orthogonalLoop=1;jettySize=auto;html=1;entryX=0.5;entryY=0;entryDx=0;entryDy=0;" edge="1" parent="dNxyNK7c78bLwvsdeMH5-20" source="_Y3a0ysCMhxK1ZZNrRvd-26" target="_Y3a0ysCMhxK1ZZNrRvd-39">
          <mxGeometry relative="1" as="geometry">
            <Array as="points">
              <mxPoint x="405" y="32" />
              <mxPoint x="455" y="33" />
            </Array>
          </mxGeometry>
        </mxCell>
        <mxCell id="_Y3a0ysCMhxK1ZZNrRvd-26" value="文字提问" style="rounded=1;whiteSpace=wrap;html=1;" vertex="1" parent="dNxyNK7c78bLwvsdeMH5-20">
          <mxGeometry x="295" y="17" width="85" height="30" as="geometry" />
        </mxCell>
        <mxCell id="_Y3a0ysCMhxK1ZZNrRvd-41" value="" style="edgeStyle=orthogonalEdgeStyle;rounded=0;orthogonalLoop=1;jettySize=auto;html=1;" edge="1" parent="dNxyNK7c78bLwvsdeMH5-20" source="_Y3a0ysCMhxK1ZZNrRvd-37" target="_Y3a0ysCMhxK1ZZNrRvd-39">
          <mxGeometry relative="1" as="geometry" />
        </mxCell>
        <mxCell id="_Y3a0ysCMhxK1ZZNrRvd-37" value="图像提问" style="rounded=1;whiteSpace=wrap;html=1;" vertex="1" parent="dNxyNK7c78bLwvsdeMH5-20">
          <mxGeometry x="295" y="63" width="85" height="30" as="geometry" />
        </mxCell>
        <mxCell id="_Y3a0ysCMhxK1ZZNrRvd-43" value="" style="edgeStyle=orthogonalEdgeStyle;rounded=0;orthogonalLoop=1;jettySize=auto;html=1;" edge="1" parent="dNxyNK7c78bLwvsdeMH5-20" source="_Y3a0ysCMhxK1ZZNrRvd-39" target="_Y3a0ysCMhxK1ZZNrRvd-42">
          <mxGeometry relative="1" as="geometry" />
        </mxCell>
        <mxCell id="_Y3a0ysCMhxK1ZZNrRvd-39" value="" style="rhombus;whiteSpace=wrap;html=1;" vertex="1" parent="dNxyNK7c78bLwvsdeMH5-20">
          <mxGeometry x="430" y="53" width="50" height="50" as="geometry" />
        </mxCell>
        <mxCell id="_Y3a0ysCMhxK1ZZNrRvd-48" value="" style="edgeStyle=orthogonalEdgeStyle;rounded=0;orthogonalLoop=1;jettySize=auto;html=1;" edge="1" parent="dNxyNK7c78bLwvsdeMH5-20" source="_Y3a0ysCMhxK1ZZNrRvd-42" target="_Y3a0ysCMhxK1ZZNrRvd-47">
          <mxGeometry relative="1" as="geometry" />
        </mxCell>
        <mxCell id="_Y3a0ysCMhxK1ZZNrRvd-42" value="暂停提问" style="rounded=1;whiteSpace=wrap;html=1;" vertex="1" parent="dNxyNK7c78bLwvsdeMH5-20">
          <mxGeometry x="510" y="63" width="85" height="30" as="geometry" />
        </mxCell>
        <mxCell id="_Y3a0ysCMhxK1ZZNrRvd-47" value="" style="ellipse;html=1;shape=endState;fillColor=#000000;strokeColor=#ff0000;" vertex="1" parent="dNxyNK7c78bLwvsdeMH5-20">
          <mxGeometry x="630" y="63" width="30" height="30" as="geometry" />
        </mxCell>
        <mxCell id="_Y3a0ysCMhxK1ZZNrRvd-58" value="" style="edgeStyle=orthogonalEdgeStyle;rounded=0;orthogonalLoop=1;jettySize=auto;html=1;" edge="1" parent="dNxyNK7c78bLwvsdeMH5-20" source="_Y3a0ysCMhxK1ZZNrRvd-51" target="_Y3a0ysCMhxK1ZZNrRvd-56">
          <mxGeometry relative="1" as="geometry" />
        </mxCell>
        <mxCell id="_Y3a0ysCMhxK1ZZNrRvd-51" value="结果返回用户" style="rounded=1;whiteSpace=wrap;html=1;" vertex="1" parent="dNxyNK7c78bLwvsdeMH5-20">
          <mxGeometry x="510" y="130" width="85" height="30" as="geometry" />
        </mxCell>
        <mxCell id="_Y3a0ysCMhxK1ZZNrRvd-57" value="" style="edgeStyle=orthogonalEdgeStyle;rounded=0;orthogonalLoop=1;jettySize=auto;html=1;" edge="1" parent="dNxyNK7c78bLwvsdeMH5-20" source="_Y3a0ysCMhxK1ZZNrRvd-56" target="_Y3a0ysCMhxK1ZZNrRvd-47">
          <mxGeometry relative="1" as="geometry" />
        </mxCell>
        <mxCell id="_Y3a0ysCMhxK1ZZNrRvd-56" value="" style="rhombus;whiteSpace=wrap;html=1;" vertex="1" parent="dNxyNK7c78bLwvsdeMH5-20">
          <mxGeometry x="620" y="120" width="50" height="50" as="geometry" />
        </mxCell>
        <mxCell id="_Y3a0ysCMhxK1ZZNrRvd-66" style="edgeStyle=orthogonalEdgeStyle;rounded=0;orthogonalLoop=1;jettySize=auto;html=1;entryX=0.5;entryY=0;entryDx=0;entryDy=0;" edge="1" parent="dNxyNK7c78bLwvsdeMH5-20" source="_Y3a0ysCMhxK1ZZNrRvd-59" target="_Y3a0ysCMhxK1ZZNrRvd-39">
          <mxGeometry relative="1" as="geometry">
            <Array as="points">
              <mxPoint x="750" y="33" />
              <mxPoint x="455" y="33" />
            </Array>
          </mxGeometry>
        </mxCell>
        <mxCell id="_Y3a0ysCMhxK1ZZNrRvd-59" value="重新生成结果" style="rounded=1;whiteSpace=wrap;html=1;" vertex="1" parent="dNxyNK7c78bLwvsdeMH5-20">
          <mxGeometry x="695" y="127.5" width="115" height="35" as="geometry" />
        </mxCell>
        <mxCell id="_Y3a0ysCMhxK1ZZNrRvd-60" value="" style="edgeStyle=orthogonalEdgeStyle;rounded=0;orthogonalLoop=1;jettySize=auto;html=1;" edge="1" parent="dNxyNK7c78bLwvsdeMH5-20" source="_Y3a0ysCMhxK1ZZNrRvd-56" target="_Y3a0ysCMhxK1ZZNrRvd-59">
          <mxGeometry relative="1" as="geometry" />
        </mxCell>
        <mxCell id="_Y3a0ysCMhxK1ZZNrRvd-46" value="" style="edgeStyle=orthogonalEdgeStyle;rounded=0;orthogonalLoop=1;jettySize=auto;html=1;" edge="1" parent="dNxyNK7c78bLwvsdeMH5-19" source="_Y3a0ysCMhxK1ZZNrRvd-39" target="_Y3a0ysCMhxK1ZZNrRvd-45">
          <mxGeometry relative="1" as="geometry" />
        </mxCell>
        <mxCell id="_Y3a0ysCMhxK1ZZNrRvd-52" style="edgeStyle=orthogonalEdgeStyle;rounded=0;orthogonalLoop=1;jettySize=auto;html=1;entryX=0.5;entryY=1;entryDx=0;entryDy=0;" edge="1" parent="dNxyNK7c78bLwvsdeMH5-19" source="_Y3a0ysCMhxK1ZZNrRvd-49" target="_Y3a0ysCMhxK1ZZNrRvd-51">
          <mxGeometry relative="1" as="geometry">
            <Array as="points">
              <mxPoint x="573" y="275" />
            </Array>
          </mxGeometry>
        </mxCell>
        <mxCell id="dNxyNK7c78bLwvsdeMH5-21" value="chatGPT" style="swimlane;html=1;startSize=20;horizontal=0;direction=east;" parent="dNxyNK7c78bLwvsdeMH5-19" vertex="1">
          <mxGeometry x="20" y="190" width="860" height="140" as="geometry" />
        </mxCell>
        <mxCell id="_Y3a0ysCMhxK1ZZNrRvd-50" value="" style="edgeStyle=orthogonalEdgeStyle;rounded=0;orthogonalLoop=1;jettySize=auto;html=1;" edge="1" parent="dNxyNK7c78bLwvsdeMH5-21" source="_Y3a0ysCMhxK1ZZNrRvd-45" target="_Y3a0ysCMhxK1ZZNrRvd-49">
          <mxGeometry relative="1" as="geometry" />
        </mxCell>
        <mxCell id="_Y3a0ysCMhxK1ZZNrRvd-45" value="向Chat API发出请求" style="rounded=1;whiteSpace=wrap;html=1;" vertex="1" parent="dNxyNK7c78bLwvsdeMH5-21">
          <mxGeometry x="391.25" y="20" width="127.5" height="30" as="geometry" />
        </mxCell>
        <mxCell id="_Y3a0ysCMhxK1ZZNrRvd-49" value="Chat API返回响应" style="rounded=1;whiteSpace=wrap;html=1;" vertex="1" parent="dNxyNK7c78bLwvsdeMH5-21">
          <mxGeometry x="391.25" y="70" width="127.5" height="30" as="geometry" />
        </mxCell>
      </root>
    </mxGraphModel>
  </diagram>
</mxfile>
